<svg xmlns="http://www.w3.org/2000/svg" viewBox="0 0 64 64">
  <defs>
    <linearGradient id="grad" x1="0%" y1="0%" x2="100%" y2="100%">
      <stop offset="0%" style="stop-color:#fb923c"/>
      <stop offset="100%" style="stop-color:#f59e0b"/>
    </linearGradient>
  </defs>
  <rect width="64" height="64" rx="14" fill="url(#grad)"/>
  <!-- Brain outline -->
  <path d="M32 10c-4 0-7 2-9 5-3 0-6 3-6 7 0 2 1 4 2 5-1 1-2 3-2 5 0 4 3 7 7 7v8h16v-8c4 0 7-3 7-7 0-2-1-4-2-5 1-1 2-3 2-5 0-4-3-7-6-7-2-3-5-5-9-5z" fill="none" stroke="white" stroke-width="2.5" stroke-linecap="round" stroke-linejoin="round"/>
  <!-- Brain center line -->
  <path d="M32 15v24" fill="none" stroke="white" stroke-width="2" stroke-linecap="round"/>
  <!-- Brain wrinkles left -->
  <path d="M24 22c3 0 5 2 5 4M22 30c4 0 6 2 6 4" fill="none" stroke="white" stroke-width="1.5" stroke-linecap="round"/>
  <!-- Brain wrinkles right -->
  <path d="M40 22c-3 0-5 2-5 4M42 30c-4 0-6 2-6 4" fill="none" stroke="white" stroke-width="1.5" stroke-linecap="round"/>
</svg>
