<svg xmlns="http://www.w3.org/2000/svg" viewBox="0 0 64 64">
  <defs>
    <linearGradient id="grad" x1="0%" y1="0%" x2="100%" y2="100%">
      <stop offset="0%" style="stop-color:#fb923c"/>
      <stop offset="100%" style="stop-color:#f59e0b"/>
    </linearGradient>
  </defs>
  <!-- Hexagon background -->
  <polygon points="32,2 58,17 58,47 32,62 6,47 6,17" fill="url(#grad)"/>
  <!-- Lightbulb outline -->
  <path d="M32 12c-7 0-12 5-12 12 0 5 2 8 6 11v5c0 1.5 1.5 3 3 3h6c1.5 0 3-1.5 3-3v-5c4-3 6-6 6-11 0-7-5-12-12-12z" fill="none" stroke="white" stroke-width="2.5" stroke-linecap="round" stroke-linejoin="round"/>
  <!-- Bulb base lines -->
  <line x1="27" y1="46" x2="37" y2="46" stroke="white" stroke-width="2" stroke-linecap="round"/>
  <line x1="27" y1="49" x2="37" y2="49" stroke="white" stroke-width="2" stroke-linecap="round"/>
  <!-- Z inside bulb -->
  <text x="32" y="30" font-family="system-ui, sans-serif" font-size="14" font-weight="bold" fill="white" text-anchor="middle">Z</text>
</svg>
